<svg xmlns="http://www.w3.org/2000/svg" viewBox="0 0 64 64"><style type="text/css">
	.st0{fill:#0768d8;}
</style><path class="st0" d="M16.7 54c-2.4 0-4.6-0.9-6.3-2.6 -1.7-1.7-2.6-3.9-2.6-6.3 0-2.4 0.9-4.6 2.6-6.3l25.4-25.4c4.6-4.6 12.2-4.6 16.8 0 2.2 2.2 3.5 5.2 3.5 8.4 0 3.2-1.2 6.1-3.5 8.4l-19 19 -2-2 19-19c3.5-3.5 3.5-9.3 0-12.8 -3.5-3.5-9.3-3.5-12.8 0l-25.4 25.4c-1.2 1.1-1.8 2.7-1.8 4.3 0 1.6 0.6 3.2 1.8 4.3 2.4 2.4 6.2 2.4 8.6 0l19-19c1.2-1.2 1.2-3.2 0-4.4 -1.2-1.2-3.2-1.2-4.4 0l-12.7 12.7 -2-2 12.7-12.7c2.3-2.3 6-2.3 8.3 0 2.3 2.3 2.3 6 0 8.3l-19 19C21.3 53.1 19.1 54 16.7 54"/></svg>