<?xml version="1.0" encoding="UTF-8" standalone="no"?>
<!DOCTYPE svg PUBLIC "-//W3C//DTD SVG 1.1//EN" "http://www.w3.org/Graphics/SVG/1.1/DTD/svg11.dtd">
<svg width="100%" height="100%" viewBox="0 0 18 18" version="1.1" xmlns="http://www.w3.org/2000/svg" xmlns:xlink="http://www.w3.org/1999/xlink" xml:space="preserve" xmlns:serif="http://www.serif.com/" style="fill-rule:evenodd;clip-rule:evenodd;stroke-linejoin:round;stroke-miterlimit:1.41421;">
    <rect id="Artboard4" x="0" y="0" width="18" height="18" style="fill:none;"/>
    <clipPath id="_clip1">
        <rect id="Artboard41" serif:id="Artboard4" x="0" y="0" width="18" height="18"/>
    </clipPath>
    <g clip-path="url(#_clip1)">
        <g transform="matrix(0.707107,0.707107,-1.27583,1.27583,17.4737,-6.65592)">
            <path d="M6,3.554C6,3.248 5.552,3 5,3C4.448,3 4,3.248 4,3.554L4,15.446C4,15.752 4.448,16 5,16C5.552,16 6,15.752 6,15.446L6,3.554Z" style="fill:rgb(7,104,216);"/>
        </g>
        <path d="M4.559,0.001L4.673,0.006L4.786,0.013L4.899,0.023L5.01,0.036L5.121,0.051L5.231,0.069L5.34,0.09L5.448,0.114L5.555,0.14L5.661,0.169L5.766,0.2L5.869,0.234L5.972,0.27L6.073,0.308L6.174,0.349L6.273,0.393L6.371,0.439L6.467,0.487L6.562,0.537L6.656,0.589L6.748,0.644L6.839,0.701L6.929,0.759L7.017,0.82L7.103,0.883L7.188,0.948L7.271,1.015L7.352,1.084L7.432,1.155L7.51,1.228L7.587,1.302L7.661,1.379L7.734,1.457L7.805,1.537L7.873,1.618L7.94,1.701L8.005,1.786L8.068,1.872L8.129,1.96L8.188,2.05L8.245,2.141L8.3,2.233L8.352,2.327L8.402,2.422L8.45,2.518L8.496,2.616L8.539,2.715L8.58,2.815L8.619,2.917L8.655,3.02L8.689,3.123L8.72,3.228L8.749,3.334L8.775,3.441L8.799,3.549L8.819,3.658L8.838,3.768L8.853,3.879L8.866,3.99L8.876,4.103L8.883,4.216L8.887,4.33L8.889,4.444L8.887,4.559L8.883,4.673L8.876,4.786L8.866,4.899L8.853,5.01L8.838,5.121L8.819,5.231L8.799,5.34L8.775,5.448L8.749,5.555L8.72,5.661L8.689,5.765L8.655,5.869L8.619,5.972L8.58,6.073L8.539,6.174L8.496,6.273L8.45,6.371L8.402,6.467L8.352,6.562L8.3,6.656L8.245,6.748L8.188,6.839L8.129,6.929L8.068,7.016L8.005,7.103L7.94,7.188L7.873,7.271L7.805,7.352L7.734,7.432L7.661,7.51L7.587,7.586L7.51,7.661L7.432,7.734L7.352,7.804L7.271,7.873L7.188,7.94L7.103,8.005L7.017,8.068L6.929,8.129L6.839,8.188L6.748,8.245L6.656,8.3L6.562,8.352L6.467,8.402L6.371,8.45L6.273,8.496L6.174,8.539L6.073,8.58L5.972,8.619L5.869,8.655L5.766,8.689L5.661,8.72L5.555,8.749L5.448,8.775L5.34,8.798L5.231,8.819L5.121,8.838L5.01,8.853L4.899,8.866L4.786,8.876L4.673,8.883L4.559,8.887L4.444,8.889L4.33,8.887L4.216,8.883L4.103,8.876L3.99,8.866L3.879,8.853L3.768,8.838L3.658,8.819L3.549,8.798L3.441,8.775L3.334,8.749L3.228,8.72L3.123,8.689L3.02,8.655L2.917,8.619L2.816,8.58L2.715,8.539L2.616,8.496L2.518,8.45L2.422,8.402L2.327,8.352L2.233,8.3L2.141,8.245L2.05,8.188L1.96,8.129L1.872,8.068L1.786,8.005L1.701,7.94L1.618,7.873L1.537,7.804L1.457,7.734L1.379,7.661L1.302,7.586L1.228,7.51L1.155,7.432L1.084,7.352L1.016,7.271L0.949,7.188L0.884,7.103L0.821,7.016L0.76,6.929L0.701,6.839L0.644,6.748L0.589,6.656L0.537,6.562L0.487,6.467L0.439,6.371L0.393,6.273L0.35,6.174L0.309,6.073L0.27,5.972L0.234,5.869L0.2,5.765L0.169,5.661L0.14,5.555L0.114,5.448L0.09,5.34L0.07,5.231L0.051,5.121L0.036,5.01L0.023,4.899L0.013,4.786L0.006,4.673L0.002,4.559L0,4.444L0.002,4.33L0.006,4.216L0.013,4.103L0.023,3.99L0.036,3.879L0.051,3.768L0.07,3.658L0.09,3.549L0.114,3.441L0.14,3.334L0.169,3.228L0.2,3.123L0.234,3.02L0.27,2.917L0.309,2.815L0.35,2.715L0.393,2.616L0.439,2.518L0.487,2.422L0.537,2.327L0.589,2.233L0.644,2.141L0.701,2.05L0.76,1.96L0.821,1.872L0.884,1.786L0.949,1.701L1.016,1.618L1.084,1.537L1.155,1.457L1.228,1.379L1.302,1.302L1.379,1.228L1.457,1.155L1.537,1.084L1.618,1.015L1.701,0.948L1.786,0.883L1.872,0.82L1.96,0.759L2.05,0.701L2.141,0.644L2.233,0.589L2.327,0.537L2.422,0.487L2.518,0.439L2.616,0.393L2.715,0.349L2.816,0.308L2.917,0.27L3.02,0.234L3.123,0.2L3.228,0.169L3.334,0.14L3.441,0.114L3.549,0.09L3.658,0.069L3.768,0.051L3.879,0.036L3.99,0.023L4.103,0.013L4.216,0.006L4.33,0.001L4.444,0L4.559,0.001ZM4.381,2.001L4.317,2.003L4.255,2.007L4.193,2.013L4.131,2.02L4.07,2.028L4.01,2.038L3.951,2.05L3.892,2.063L3.833,2.077L3.775,2.093L3.718,2.11L3.661,2.128L3.605,2.148L3.55,2.169L3.495,2.191L3.441,2.215L3.387,2.24L3.334,2.267L3.282,2.294L3.23,2.323L3.18,2.353L3.13,2.384L3.08,2.417L3.032,2.45L2.984,2.485L2.937,2.521L2.891,2.558L2.846,2.596L2.802,2.635L2.759,2.675L2.717,2.717L2.676,2.759L2.635,2.802L2.596,2.846L2.558,2.891L2.521,2.937L2.485,2.984L2.45,3.032L2.417,3.08L2.384,3.129L2.353,3.179L2.323,3.23L2.294,3.282L2.267,3.334L2.24,3.387L2.215,3.441L2.192,3.495L2.169,3.55L2.148,3.605L2.128,3.661L2.11,3.718L2.093,3.775L2.077,3.833L2.063,3.891L2.05,3.951L2.039,4.01L2.029,4.07L2.02,4.131L2.013,4.193L2.007,4.255L2.003,4.317L2.001,4.38L2,4.444L2.001,4.508L2.003,4.572L2.007,4.634L2.013,4.696L2.02,4.758L2.029,4.818L2.039,4.879L2.05,4.938L2.063,4.997L2.077,5.056L2.093,5.114L2.11,5.171L2.128,5.228L2.148,5.284L2.169,5.339L2.192,5.394L2.215,5.448L2.24,5.502L2.267,5.555L2.294,5.607L2.323,5.659L2.353,5.709L2.384,5.759L2.417,5.809L2.45,5.857L2.485,5.905L2.521,5.952L2.558,5.998L2.596,6.043L2.635,6.087L2.676,6.13L2.717,6.172L2.759,6.213L2.802,6.254L2.846,6.293L2.891,6.331L2.937,6.368L2.984,6.404L3.032,6.439L3.08,6.472L3.13,6.505L3.18,6.536L3.23,6.566L3.282,6.595L3.334,6.622L3.387,6.649L3.441,6.674L3.495,6.697L3.55,6.72L3.605,6.741L3.661,6.761L3.718,6.779L3.775,6.796L3.833,6.812L3.892,6.826L3.951,6.839L4.01,6.85L4.07,6.86L4.131,6.869L4.193,6.876L4.255,6.881L4.317,6.885L4.381,6.888L4.444,6.889L4.508,6.888L4.572,6.885L4.634,6.881L4.696,6.876L4.758,6.869L4.819,6.86L4.879,6.85L4.938,6.839L4.997,6.826L5.056,6.812L5.114,6.796L5.171,6.779L5.228,6.761L5.284,6.741L5.339,6.72L5.394,6.697L5.448,6.674L5.502,6.649L5.555,6.622L5.607,6.595L5.659,6.566L5.709,6.536L5.759,6.505L5.809,6.472L5.857,6.439L5.905,6.404L5.952,6.368L5.998,6.331L6.043,6.293L6.087,6.254L6.13,6.213L6.172,6.172L6.213,6.13L6.254,6.087L6.293,6.043L6.331,5.998L6.368,5.952L6.404,5.905L6.439,5.857L6.472,5.809L6.505,5.759L6.536,5.709L6.566,5.659L6.595,5.607L6.622,5.555L6.649,5.502L6.674,5.448L6.697,5.394L6.72,5.339L6.741,5.284L6.761,5.228L6.779,5.171L6.796,5.114L6.812,5.056L6.826,4.997L6.839,4.938L6.85,4.879L6.86,4.818L6.869,4.758L6.876,4.696L6.882,4.634L6.886,4.572L6.888,4.508L6.889,4.444L6.888,4.38L6.886,4.317L6.882,4.255L6.876,4.193L6.869,4.131L6.86,4.07L6.85,4.01L6.839,3.951L6.826,3.891L6.812,3.833L6.796,3.775L6.779,3.718L6.761,3.661L6.741,3.605L6.72,3.55L6.697,3.495L6.674,3.441L6.649,3.387L6.622,3.334L6.595,3.282L6.566,3.23L6.536,3.179L6.505,3.129L6.472,3.08L6.439,3.032L6.404,2.984L6.368,2.937L6.331,2.891L6.293,2.846L6.254,2.802L6.213,2.759L6.172,2.717L6.13,2.675L6.087,2.635L6.043,2.596L5.998,2.558L5.952,2.521L5.905,2.485L5.857,2.45L5.809,2.417L5.759,2.384L5.709,2.353L5.659,2.323L5.607,2.294L5.555,2.267L5.502,2.24L5.448,2.215L5.394,2.191L5.339,2.169L5.284,2.148L5.228,2.128L5.171,2.11L5.114,2.093L5.056,2.077L4.997,2.063L4.938,2.05L4.879,2.038L4.819,2.028L4.758,2.02L4.696,2.013L4.634,2.007L4.572,2.003L4.508,2.001L4.444,2L4.381,2.001Z" style="fill:rgb(7,104,216);"/>
        <g transform="matrix(1,0,0,1,9.11111,9.11122)">
            <path d="M4.559,0.001L4.673,0.006L4.786,0.013L4.899,0.023L5.01,0.036L5.121,0.051L5.231,0.069L5.34,0.09L5.448,0.114L5.555,0.14L5.661,0.169L5.766,0.2L5.869,0.234L5.972,0.27L6.073,0.308L6.174,0.349L6.273,0.393L6.371,0.439L6.467,0.487L6.562,0.537L6.656,0.589L6.748,0.644L6.839,0.701L6.929,0.759L7.017,0.82L7.103,0.883L7.188,0.948L7.271,1.015L7.352,1.084L7.432,1.155L7.51,1.228L7.587,1.302L7.661,1.379L7.734,1.457L7.805,1.537L7.873,1.618L7.94,1.701L8.005,1.786L8.068,1.872L8.129,1.96L8.188,2.05L8.245,2.141L8.3,2.233L8.352,2.327L8.402,2.422L8.45,2.518L8.496,2.616L8.539,2.715L8.58,2.815L8.619,2.917L8.655,3.02L8.689,3.123L8.72,3.228L8.749,3.334L8.775,3.441L8.799,3.549L8.819,3.658L8.838,3.768L8.853,3.879L8.866,3.99L8.876,4.103L8.883,4.216L8.887,4.33L8.889,4.444L8.887,4.559L8.883,4.673L8.876,4.786L8.866,4.899L8.853,5.01L8.838,5.121L8.819,5.231L8.799,5.34L8.775,5.448L8.749,5.555L8.72,5.661L8.689,5.765L8.655,5.869L8.619,5.972L8.58,6.073L8.539,6.174L8.496,6.273L8.45,6.371L8.402,6.467L8.352,6.562L8.3,6.656L8.245,6.748L8.188,6.839L8.129,6.929L8.068,7.016L8.005,7.103L7.94,7.188L7.873,7.271L7.805,7.352L7.734,7.432L7.661,7.51L7.587,7.586L7.51,7.661L7.432,7.734L7.352,7.804L7.271,7.873L7.188,7.94L7.103,8.005L7.017,8.068L6.929,8.129L6.839,8.188L6.748,8.245L6.656,8.3L6.562,8.352L6.467,8.402L6.371,8.45L6.273,8.496L6.174,8.539L6.073,8.58L5.972,8.619L5.869,8.655L5.766,8.689L5.661,8.72L5.555,8.749L5.448,8.775L5.34,8.798L5.231,8.819L5.121,8.838L5.01,8.853L4.899,8.866L4.786,8.876L4.673,8.883L4.559,8.887L4.444,8.889L4.33,8.887L4.216,8.883L4.103,8.876L3.99,8.866L3.879,8.853L3.768,8.838L3.658,8.819L3.549,8.798L3.441,8.775L3.334,8.749L3.228,8.72L3.123,8.689L3.02,8.655L2.917,8.619L2.816,8.58L2.715,8.539L2.616,8.496L2.518,8.45L2.422,8.402L2.327,8.352L2.233,8.3L2.141,8.245L2.05,8.188L1.96,8.129L1.872,8.068L1.786,8.005L1.701,7.94L1.618,7.873L1.537,7.804L1.457,7.734L1.379,7.661L1.302,7.586L1.228,7.51L1.155,7.432L1.084,7.352L1.016,7.271L0.949,7.188L0.884,7.103L0.821,7.016L0.76,6.929L0.701,6.839L0.644,6.748L0.589,6.656L0.537,6.562L0.487,6.467L0.439,6.371L0.393,6.273L0.35,6.174L0.309,6.073L0.27,5.972L0.234,5.869L0.2,5.765L0.169,5.661L0.14,5.555L0.114,5.448L0.09,5.34L0.07,5.231L0.051,5.121L0.036,5.01L0.023,4.899L0.013,4.786L0.006,4.673L0.002,4.559L0,4.444L0.002,4.33L0.006,4.216L0.013,4.103L0.023,3.99L0.036,3.879L0.051,3.768L0.07,3.658L0.09,3.549L0.114,3.441L0.14,3.334L0.169,3.228L0.2,3.123L0.234,3.02L0.27,2.917L0.309,2.815L0.35,2.715L0.393,2.616L0.439,2.518L0.487,2.422L0.537,2.327L0.589,2.233L0.644,2.141L0.701,2.05L0.76,1.96L0.821,1.872L0.884,1.786L0.949,1.701L1.016,1.618L1.084,1.537L1.155,1.457L1.228,1.379L1.302,1.302L1.379,1.228L1.457,1.155L1.537,1.084L1.618,1.015L1.701,0.948L1.786,0.883L1.872,0.82L1.96,0.759L2.05,0.701L2.141,0.644L2.233,0.589L2.327,0.537L2.422,0.487L2.518,0.439L2.616,0.393L2.715,0.349L2.816,0.308L2.917,0.27L3.02,0.234L3.123,0.2L3.228,0.169L3.334,0.14L3.441,0.114L3.549,0.09L3.658,0.069L3.768,0.051L3.879,0.036L3.99,0.023L4.103,0.013L4.216,0.006L4.33,0.001L4.444,0L4.559,0.001ZM4.381,2.001L4.317,2.003L4.255,2.007L4.193,2.013L4.131,2.02L4.07,2.028L4.01,2.038L3.951,2.05L3.892,2.063L3.833,2.077L3.775,2.093L3.718,2.11L3.661,2.128L3.605,2.148L3.55,2.169L3.495,2.191L3.441,2.215L3.387,2.24L3.334,2.267L3.282,2.294L3.23,2.323L3.18,2.353L3.13,2.384L3.08,2.417L3.032,2.45L2.984,2.485L2.937,2.521L2.891,2.558L2.846,2.596L2.802,2.635L2.759,2.675L2.717,2.717L2.676,2.759L2.635,2.802L2.596,2.846L2.558,2.891L2.521,2.937L2.485,2.984L2.45,3.032L2.417,3.08L2.384,3.129L2.353,3.179L2.323,3.23L2.294,3.282L2.267,3.334L2.24,3.387L2.215,3.441L2.192,3.495L2.169,3.55L2.148,3.605L2.128,3.661L2.11,3.718L2.093,3.775L2.077,3.833L2.063,3.891L2.05,3.951L2.039,4.01L2.029,4.07L2.02,4.131L2.013,4.193L2.007,4.255L2.003,4.317L2.001,4.38L2,4.444L2.001,4.508L2.003,4.572L2.007,4.634L2.013,4.696L2.02,4.758L2.029,4.818L2.039,4.879L2.05,4.938L2.063,4.997L2.077,5.056L2.093,5.114L2.11,5.171L2.128,5.228L2.148,5.284L2.169,5.339L2.192,5.394L2.215,5.448L2.24,5.502L2.267,5.555L2.294,5.607L2.323,5.659L2.353,5.709L2.384,5.759L2.417,5.809L2.45,5.857L2.485,5.905L2.521,5.952L2.558,5.998L2.596,6.043L2.635,6.087L2.676,6.13L2.717,6.172L2.759,6.213L2.802,6.254L2.846,6.293L2.891,6.331L2.937,6.368L2.984,6.404L3.032,6.439L3.08,6.472L3.13,6.505L3.18,6.536L3.23,6.566L3.282,6.595L3.334,6.622L3.387,6.649L3.441,6.674L3.495,6.697L3.55,6.72L3.605,6.741L3.661,6.761L3.718,6.779L3.775,6.796L3.833,6.812L3.892,6.826L3.951,6.839L4.01,6.85L4.07,6.86L4.131,6.869L4.193,6.876L4.255,6.881L4.317,6.885L4.381,6.888L4.444,6.889L4.508,6.888L4.572,6.885L4.634,6.881L4.696,6.876L4.758,6.869L4.819,6.86L4.879,6.85L4.938,6.839L4.997,6.826L5.056,6.812L5.114,6.796L5.171,6.779L5.228,6.761L5.284,6.741L5.339,6.72L5.394,6.697L5.448,6.674L5.502,6.649L5.555,6.622L5.607,6.595L5.659,6.566L5.709,6.536L5.759,6.505L5.809,6.472L5.857,6.439L5.905,6.404L5.952,6.368L5.998,6.331L6.043,6.293L6.087,6.254L6.13,6.213L6.172,6.172L6.213,6.13L6.254,6.087L6.293,6.043L6.331,5.998L6.368,5.952L6.404,5.905L6.439,5.857L6.472,5.809L6.505,5.759L6.536,5.709L6.566,5.659L6.595,5.607L6.622,5.555L6.649,5.502L6.674,5.448L6.697,5.394L6.72,5.339L6.741,5.284L6.761,5.228L6.779,5.171L6.796,5.114L6.812,5.056L6.826,4.997L6.839,4.938L6.85,4.879L6.86,4.818L6.869,4.758L6.876,4.696L6.882,4.634L6.886,4.572L6.888,4.508L6.889,4.444L6.888,4.38L6.886,4.317L6.882,4.255L6.876,4.193L6.869,4.131L6.86,4.07L6.85,4.01L6.839,3.951L6.826,3.891L6.812,3.833L6.796,3.775L6.779,3.718L6.761,3.661L6.741,3.605L6.72,3.55L6.697,3.495L6.674,3.441L6.649,3.387L6.622,3.334L6.595,3.282L6.566,3.23L6.536,3.179L6.505,3.129L6.472,3.08L6.439,3.032L6.404,2.984L6.368,2.937L6.331,2.891L6.293,2.846L6.254,2.802L6.213,2.759L6.172,2.717L6.13,2.675L6.087,2.635L6.043,2.596L5.998,2.558L5.952,2.521L5.905,2.485L5.857,2.45L5.809,2.417L5.759,2.384L5.709,2.353L5.659,2.323L5.607,2.294L5.555,2.267L5.502,2.24L5.448,2.215L5.394,2.191L5.339,2.169L5.284,2.148L5.228,2.128L5.171,2.11L5.114,2.093L5.056,2.077L4.997,2.063L4.938,2.05L4.879,2.038L4.819,2.028L4.758,2.02L4.696,2.013L4.634,2.007L4.572,2.003L4.508,2.001L4.444,2L4.381,2.001Z" style="fill:rgb(7,104,216);"/>
        </g>
    </g>
</svg>
