<?xml version="1.0" encoding="UTF-8" standalone="no"?><!DOCTYPE svg PUBLIC "-//W3C//DTD SVG 1.1//EN" "http://www.w3.org/Graphics/SVG/1.1/DTD/svg11.dtd"><svg width="100%" height="100%" viewBox="0 0 18 18" version="1.1" xmlns="http://www.w3.org/2000/svg" xmlns:xlink="http://www.w3.org/1999/xlink" xml:space="preserve" xmlns:serif="http://www.serif.com/" style="fill-rule:evenodd;clip-rule:evenodd;stroke-linejoin:round;stroke-miterlimit:1.41421;"><rect id="Artboard3" x="0" y="0" width="18" height="18" style="fill:none;"/><clipPath id="_clip1"><rect x="0" y="0" width="18" height="18"/></clipPath><g clip-path="url(#_clip1)"><rect x="0" y="0" width="18" height="18" style="fill:none;"/><path d="M12.54,4.665l-5.625,5.625c-0.22,0.22 -0.22,0.575 0,0.795c0.109,0.11 0.253,0.165 0.397,0.165c0.144,0 0.288,-0.055 0.398,-0.165l5.625,-5.625c0.22,-0.22 0.22,-0.575 0,-0.795c-0.22,-0.22 -0.575,-0.22 -0.795,0m3.695,0.184l-0.524,0.525c-0.051,-0.804 -0.384,-1.553 -0.958,-2.127c-0.575,-0.576 -1.326,-0.909 -2.13,-0.959l0.526,-0.523l0.002,-0.001c0.411,-0.412 0.959,-0.639 1.542,-0.639c0.583,0 1.131,0.227 1.542,0.639c0.413,0.412 0.64,0.96 0.64,1.542c0,0.584 -0.227,1.132 -0.64,1.543m-2.278,2.278l-6.853,6.854l0.197,-0.927c0.034,-0.166 -0.007,-0.338 -0.114,-0.47c-0.107,-0.132 -0.267,-0.209 -0.437,-0.209l-1.125,0l0,-1.125c0,-0.31 -0.252,-0.562 -0.563,-0.562l-0.887,0l6.69,-6.652l0.007,0.006c0.412,-0.412 0.959,-0.639 1.542,-0.639c0.583,0 1.131,0.227 1.543,0.639c0.412,0.412 0.639,0.96 0.639,1.543c0,0.583 -0.227,1.131 -0.639,1.542m-8.28,8.153l-2.095,0.643c-0.122,-0.357 -0.312,-0.676 -0.571,-0.934c-0.226,-0.226 -0.487,-0.399 -0.763,-0.541l0.958,-2.636l1.294,0l0,1.125c0,0.312 0.251,0.563 0.562,0.563l0.993,0l-0.378,1.78Zm11.354,-14.311c-0.624,-0.625 -1.455,-0.969 -2.338,-0.969c-0.883,0 -1.713,0.343 -2.337,0.968l-9.94,9.883c-0.059,0.059 -0.104,0.129 -0.132,0.207l-2.25,6.187c-0.073,0.201 -0.026,0.425 0.121,0.58c0.108,0.114 0.256,0.175 0.407,0.175c0.055,0 0.111,-0.008 0.165,-0.025l5.596,-1.716c0.088,-0.027 0.169,-0.075 0.233,-0.14l10.475,-10.474c0.625,-0.624 0.969,-1.455 0.969,-2.339c-0.001,-0.882 -0.344,-1.713 -0.969,-2.337" style="fill:#0768d8;fill-rule:nonzero;"/></g></svg>