<svg xmlns="http://www.w3.org/2000/svg" viewBox="0 0 128 128"><style>.a{fill:#FF402F;}.b{fill:#FF9A30;}</style><path d="M95.2 80.3c-0.1-0.5-0.5-1.1-0.9-1.6 -1.3-1.2-4-1.9-8.2-1.9 -2.9 0-6.3 0.2-9.9 0.7 -1.6-0.9-3.3-1.9-4.6-3.2 -3.5-3.3-6.5-7.9-8.3-12.9 0.1-0.5 0.2-0.9 0.3-1.3 0 0 2-11.3 1.5-15.1 -0.1-0.5-0.1-0.7-0.3-1.1l-0.2-0.4c-0.5-1.2-1.6-2.6-3.3-2.5L60.3 41H60.3c-1.9 0-3.4 1-3.8 2.4 -1.2 4.4 0 11.1 2.3 19.7l-0.6 1.4c-1.6 3.9-3.6 7.9-5.4 11.4l-0.2 0.5c-1.9 3.7-3.6 6.8-5.1 9.4l-1.6 0.8c-0.1 0.1-2.8 1.5-3.5 1.9 -5.4 3.3-9 6.9-9.6 9.9 -0.2 0.9 0 2.1 0.9 2.7l1.5 0.8c0.7 0.3 1.4 0.5 2.1 0.5 3.9 0 8.4-4.8 14.6-15.6 7.1-2.3 15.3-4.3 22.4-5.3 5.4 3.1 12.1 5.2 16.3 5.2 0.8 0 1.4-0.1 1.9-0.2 0.8-0.2 1.5-0.7 1.9-1.3C95.3 83.8 95.4 82.1 95.2 80.3zM36.5 99.3c0.7-1.9 3.5-5.7 7.6-9.1 0.3-0.2 0.9-0.8 1.5-1.4C41.3 95.7 38.4 98.5 36.5 99.3zM61 43c1.2 0 2 3.1 2 6.1 0.1 2.9-0.6 5-1.5 6.5 -0.7-2.3-1-5.8-1-8.1C60.4 47.5 60.4 43 61 43zM53.7 83.1c0.9-1.5 1.8-3.2 2.7-4.9 2.3-4.2 3.7-7.6 4.7-10.3 2.1 3.8 4.7 7.1 7.8 9.7 0.4 0.3 0.8 0.7 1.2 1C63.8 79.8 58.4 81.3 53.7 83.1zM93.1 82.8c-0.4 0.2-1.5 0.4-2.2 0.4 -2.3 0-5.1-1-9-2.7 1.5-0.1 2.9-0.2 4.1-0.2 2.3 0 2.9 0 5.2 0.6C93.4 81.4 93.5 82.6 93.1 82.8z" class="a"/><path d="M104 80c-13.3 0-24 10.7-24 24s10.7 24 24 24 24-10.7 24-24S117.3 80 104 80zM114.9 97l-0.1 0.2 -8.2 11.4C106 109.5 105 110 104 110s-2-0.5-2.5-1.4l-8.3-11.6c-0.5-0.9-0.5-2.1 0-3 0.5-0.9 1.5-1.5 2.6-1.5H100V86c0-1.7 1.3-3 3-3h2c1.7 0 3 1.3 3 3v6.5h4.3c1.1 0 2.1 0.6 2.6 1.5C115.4 94.9 115.4 96.1 114.9 97z" class="a"/><polygon points="84 126 84 126 84 126 " class="b"/><polygon points="114 77 114 77 114 77 " class="b"/><path d="M111.1 44.2L71.8 4.9C69.9 3 67.4 2 64.7 2H24c-5.5 0-10 4.5-10 10v104c0 5.5 4.5 10 10 10h60l-4-4H24c-3.3 0-6-2.7-6-6V12c0-3.3 2.7-6 6-6h40.7c1.6 0 3.1 0.6 4.2 1.8l39.3 39.3c1.1 1.1 1.8 2.7 1.8 4.2V73l4 4V51.3C114 48.6 113 46.1 111.1 44.2z" class="a"/><polyline points="114 77 114 77 110 73 " fill="#FFF"/></svg>

