<svg xmlns="http://www.w3.org/2000/svg" height="32" viewBox="0 0 32 32" width="32" version="1"><g style="fill-rule:evenodd;fill:none"><g fill="#0768d8"><path d="M21 13L21 10 21 10 15 3 4 3C2.9 3 2 3.9 2 5L2 28C2 29.1 2.9 30 4 30L19 30C20.1 30 21 29.1 21 28L21 26 29 26C30.7 26 32 24.7 32 23L32 16C32 14.3 30.7 13 29 13L21 13 21 13 21 13ZM20 26L20 28C20 28.6 19.6 29 19 29L4 29C3.5 29 3 28.6 3 28L3 5C3 4.5 3.4 4 4 4L14 4 14 9C14 10.1 14.9 11 16 11L20 11 20 13 12 13C10.3 13 9 14.3 9 16L9 23C9 24.7 10.3 26 12 26L20 26 20 26 20 26ZM15 4.5L15 9C15 9.5 15.5 10 16 10L19.7 10 15 4.5 15 4.5ZM12 14C10.9 14 10 14.9 10 16L10 23C10 24.1 10.9 25 12 25L29 25C30.1 25 31 24.1 31 23L31 16C31 14.9 30.1 14 29 14L12 14 12 14ZM25 19L25 17 29 17 29 16 24 16 24 23 25 23 25 20 28 20 28 19 25 19 25 19ZM12 18L12 23 13 23 13 20 15 20C16.1 20 17 19.1 17 18 17 16.9 16.1 16 15 16L12 16 12 18 12 18ZM13 17L13 19 15 19C15.6 19 16 18.6 16 18 16 17.4 15.6 17 15 17L13 17 13 17ZM18 16L18 23 21 23C22.1 23 23 22.1 23 21L23 18C23 16.9 22.1 16 21 16L18 16 18 16ZM19 17L19 22 21 22C21.6 22 22 21.6 22 21L22 18C22 17.4 21.6 17 21 17L19 17 19 17Z"/></g></g></svg>