<svg xmlns="http://www.w3.org/2000/svg" height="32" viewBox="0 0 32 32" width="32" version="1"><g style="fill-rule:evenodd;fill:none"><g fill="#0768d8"><path d="M17.3 29L7 29C5.9 29 5 28.1 5 27L5 4C5 2.9 5.9 2 7 2L17.5 2 17.5 2 18 2 24 9 24 9.5 24 20.6C25.8 21.5 27 23.4 27 25.5 27 28.5 24.5 31 21.5 31 19.8 31 18.3 30.2 17.3 29L17.3 29 17.3 29ZM16.6 28L7 28C6.5 28 6 27.6 6 27L6 4C6 3.5 6.4 3 7 3L17 3 17 8C17 9.1 17.9 10 19 10L23 10 23 20.2C22.5 20.1 22 20 21.5 20 18.5 20 16 22.5 16 25.5 16 26.4 16.2 27.2 16.6 28L16.6 28 16.6 28ZM18 3.5L18 8C18 8.5 18.5 9 19 9L22.7 9 18 3.5 18 3.5ZM21.5 30C24 30 26 28 26 25.5 26 23 24 21 21.5 21 19 21 17 23 17 25.5 17 28 19 30 21.5 30L21.5 30ZM18 25L18 26 25 26 25 25 18 25 18 25Z"/></g></g></svg>