<?xml version="1.0" encoding="UTF-8" standalone="no"?><!DOCTYPE svg PUBLIC "-//W3C//DTD SVG 1.1//EN" "http://www.w3.org/Graphics/SVG/1.1/DTD/svg11.dtd"><svg width="100%" height="100%" viewBox="0 0 14 14" version="1.1" xmlns="http://www.w3.org/2000/svg" xmlns:xlink="http://www.w3.org/1999/xlink" xml:space="preserve" xmlns:serif="http://www.serif.com/" style="fill-rule:evenodd;clip-rule:evenodd;stroke-linejoin:round;stroke-miterlimit:1.41421;"><rect id="Artboard1" x="0" y="0" width="14" height="14" style="fill:none;"/><circle id="check-circle" cx="7" cy="7" r="7" style="fill:#189e44;"/><path id="checkmark-icon" d="M5.983,8.385l3.834,-4.17c0.095,-0.104 0.224,-0.162 0.359,-0.162c0.135,0 0.264,0.058 0.359,0.162c0.095,0.103 0.149,0.244 0.149,0.391c0,0.146 -0.054,0.288 -0.149,0.391c-0.771,0.84 -4.549,4.95 -4.549,4.95l-0.003,-0.003l-0.002,0.003c0,0 -1.745,-1.898 -2.516,-2.738c-0.095,-0.103 -0.149,-0.244 -0.149,-0.391c0,-0.146 0.054,-0.287 0.149,-0.391c0.095,-0.104 0.224,-0.162 0.359,-0.162c0.135,0 0.264,0.058 0.359,0.162l1.8,1.958Z" style="fill:#fff;"/></svg>