<?xml version="1.0" encoding="UTF-8" standalone="no"?>
<!DOCTYPE svg PUBLIC "-//W3C//DTD SVG 1.1//EN" "http://www.w3.org/Graphics/SVG/1.1/DTD/svg11.dtd">
<svg width="100%" height="100%" viewBox="0 0 230 512" version="1.1" xmlns="http://www.w3.org/2000/svg" xmlns:xlink="http://www.w3.org/1999/xlink" xml:space="preserve" xmlns:serif="http://www.serif.com/" style="fill-rule:evenodd;clip-rule:evenodd;stroke-linejoin:round;stroke-miterlimit:1.41421;">
    <g id="Artboard1" transform="matrix(1.00229,0,0,1,0,0)">
        <rect x="0" y="0" width="229.475" height="512" style="fill:none;"/>
        <g transform="matrix(2.37224,0,0,2.37767,-487.098,-355.02)">
            <circle cx="260.653" cy="177.311" r="27.997" style="fill:rgb(7,104,216);"/>
        </g>
        <g transform="matrix(2.37224,0,0,2.37767,-489.47,-355.02)">
            <path d="M241.496,217.831C258.872,217.831 266.202,218.103 272.446,218.103C278.691,218.103 287.107,220.275 284.12,236.835C281.134,253.396 269.731,309.323 268.374,321.812C267.017,334.3 268.374,341.902 280.863,340.545C293.351,339.187 296.337,333.486 300.41,334.029C304.482,334.572 303.939,344.074 294.98,350.861C286.021,357.648 274.075,366.879 247.741,364.164C221.406,361.449 214.076,346.789 217.605,318.554C221.135,290.319 229.008,260.184 229.822,249.324C230.637,238.464 228.187,234.183 217.605,233.035C210.22,232.233 206.332,229.02 206.332,224.948C206.332,220.876 210.167,217.489 218.148,217.56C228.193,217.649 224.121,217.831 241.496,217.831Z" style="fill:rgb(7,104,216);"/>
        </g>
    </g>
</svg>
