<?xml version="1.0" encoding="UTF-8" standalone="no"?>
<!DOCTYPE svg PUBLIC "-//W3C//DTD SVG 1.1//EN" "http://www.w3.org/Graphics/SVG/1.1/DTD/svg11.dtd">
<svg width="100%" height="100%" viewBox="0 0 28 26" version="1.1" xmlns="http://www.w3.org/2000/svg" xmlns:xlink="http://www.w3.org/1999/xlink" xml:space="preserve" xmlns:serif="http://www.serif.com/" style="fill-rule:evenodd;clip-rule:evenodd;stroke-linejoin:round;stroke-miterlimit:1.41421;">
    <g id="Artboard1" transform="matrix(0.583333,0,0,0.672584,-1.55431e-15,-6.28405)">
        <rect x="0" y="9.343" width="48" height="38.657" style="fill:none;"/>
        <clipPath id="_clip1">
            <rect x="0" y="9.343" width="48" height="38.657"/>
        </clipPath>
        <g clip-path="url(#_clip1)">
            <g transform="matrix(-1.77741e-16,0.920401,-0.428571,-8.89384e-17,36.4286,3.82074)">
                <path d="M48,29C48,26.792 47.276,25 46.385,25L7.615,25C6.724,25 6,26.792 6,29C6,31.208 6.724,33 7.615,33L46.385,33C47.276,33 48,31.208 48,29Z" style="fill:rgb(7,104,216);fill-opacity:0.6;"/>
            </g>
            <g transform="matrix(3,0,0,3.3453,1.77636e-15,3.76764)">
                <path d="M14.887,3L14.916,3.001L14.945,3.003L14.974,3.005L15.003,3.007L15.031,3.01L15.059,3.014L15.087,3.018L15.115,3.023L15.143,3.028L15.17,3.034L15.197,3.04L15.224,3.047L15.25,3.054L15.276,3.062L15.302,3.07L15.327,3.079L15.352,3.088L15.377,3.097L15.402,3.107L15.426,3.118L15.45,3.129L15.473,3.14L15.496,3.152L15.519,3.164L15.541,3.177L15.563,3.19L15.584,3.203L15.605,3.217L15.625,3.231L15.645,3.246L15.665,3.26L15.684,3.276L15.703,3.291L15.721,3.307L15.739,3.324L15.756,3.34L15.773,3.357L15.789,3.374L15.805,3.392L15.82,3.41L15.834,3.428L15.848,3.447L15.862,3.465L15.875,3.484L15.887,3.504L15.899,3.523L15.91,3.543L15.921,3.563L15.931,3.583L15.94,3.604L15.949,3.625L15.957,3.646L15.964,3.667L15.971,3.688L15.977,3.71L15.982,3.732L15.987,3.754L15.991,3.776L15.994,3.798L15.997,3.821L15.999,3.843L16,3.866L16,3.889L16,6.111L16,6.134L15.999,6.157L15.997,6.179L15.994,6.202L15.991,6.224L15.987,6.246L15.982,6.268L15.977,6.29L15.971,6.312L15.964,6.333L15.957,6.354L15.949,6.375L15.94,6.396L15.931,6.417L15.921,6.437L15.91,6.457L15.899,6.477L15.887,6.496L15.875,6.516L15.862,6.535L15.848,6.553L15.834,6.572L15.82,6.59L15.805,6.608L15.789,6.626L15.773,6.643L15.756,6.66L15.739,6.676L15.721,6.693L15.703,6.709L15.684,6.724L15.665,6.74L15.645,6.754L15.625,6.769L15.605,6.783L15.584,6.797L15.563,6.81L15.541,6.823L15.519,6.836L15.496,6.848L15.473,6.86L15.45,6.871L15.426,6.882L15.402,6.893L15.377,6.903L15.352,6.912L15.327,6.921L15.302,6.93L15.276,6.938L15.25,6.946L15.224,6.953L15.197,6.96L15.17,6.966L15.143,6.972L15.115,6.977L15.087,6.982L15.059,6.986L15.031,6.99L15.003,6.993L14.974,6.995L14.945,6.997L14.916,6.999L14.887,7L14.857,7L1.143,7L1.113,7L1.084,6.999L1.055,6.997L1.026,6.995L0.997,6.993L0.969,6.99L0.941,6.986L0.913,6.982L0.885,6.977L0.857,6.972L0.83,6.966L0.803,6.96L0.776,6.953L0.75,6.946L0.724,6.938L0.698,6.93L0.673,6.921L0.648,6.912L0.623,6.903L0.598,6.893L0.574,6.882L0.55,6.871L0.527,6.86L0.504,6.848L0.481,6.836L0.459,6.823L0.437,6.81L0.416,6.797L0.395,6.783L0.375,6.769L0.355,6.754L0.335,6.74L0.316,6.724L0.297,6.709L0.279,6.693L0.261,6.676L0.244,6.66L0.227,6.643L0.211,6.626L0.195,6.608L0.18,6.59L0.166,6.572L0.152,6.553L0.138,6.535L0.125,6.516L0.113,6.496L0.101,6.477L0.09,6.457L0.079,6.437L0.069,6.417L0.06,6.396L0.051,6.375L0.043,6.354L0.036,6.333L0.029,6.312L0.023,6.29L0.018,6.268L0.013,6.246L0.009,6.224L0.006,6.202L0.003,6.179L0.001,6.157L0,6.134L0,6.111L0,3.889L0,3.866L0.001,3.843L0.003,3.821L0.006,3.798L0.009,3.776L0.013,3.754L0.018,3.732L0.023,3.71L0.029,3.688L0.036,3.667L0.043,3.646L0.051,3.625L0.06,3.604L0.069,3.583L0.079,3.563L0.09,3.543L0.101,3.523L0.113,3.504L0.125,3.484L0.138,3.465L0.152,3.447L0.166,3.428L0.18,3.41L0.195,3.392L0.211,3.374L0.227,3.357L0.244,3.34L0.261,3.324L0.279,3.307L0.297,3.291L0.316,3.276L0.335,3.26L0.355,3.246L0.375,3.231L0.395,3.217L0.416,3.203L0.437,3.19L0.459,3.177L0.481,3.164L0.504,3.152L0.527,3.14L0.55,3.129L0.574,3.118L0.598,3.107L0.623,3.097L0.648,3.088L0.673,3.079L0.698,3.07L0.724,3.062L0.75,3.054L0.776,3.047L0.803,3.04L0.83,3.034L0.857,3.028L0.885,3.023L0.913,3.018L0.941,3.014L0.969,3.01L0.997,3.007L1.026,3.005L1.055,3.003L1.084,3.001L1.113,3L1.143,3L14.857,3L14.887,3ZM1.714,4.333L1.714,5.667L14.286,5.667L14.286,4.333L1.714,4.333Z" style="fill:rgb(7,104,216);"/>
            </g>
            <g transform="matrix(2.57143,0,0,2.9736,3.42857,22.7244)">
                <path d="M14.701,3L14.735,3.001L14.769,3.003L14.803,3.005L14.836,3.008L14.87,3.012L14.903,3.016L14.935,3.02L14.968,3.026L15,3.032L15.032,3.038L15.063,3.045L15.094,3.053L15.125,3.061L15.155,3.069L15.185,3.079L15.215,3.088L15.245,3.099L15.273,3.109L15.302,3.121L15.33,3.133L15.358,3.145L15.385,3.158L15.412,3.171L15.438,3.185L15.464,3.199L15.49,3.213L15.515,3.228L15.539,3.244L15.563,3.26L15.586,3.276L15.609,3.293L15.632,3.31L15.653,3.328L15.675,3.346L15.695,3.364L15.715,3.383L15.735,3.402L15.754,3.421L15.772,3.441L15.79,3.461L15.807,3.482L15.823,3.502L15.839,3.524L15.854,3.545L15.868,3.567L15.882,3.589L15.895,3.611L15.907,3.633L15.919,3.656L15.93,3.679L15.94,3.703L15.949,3.726L15.958,3.75L15.966,3.774L15.973,3.799L15.979,3.823L15.985,3.848L15.989,3.873L15.993,3.898L15.996,3.923L15.998,3.949L16,3.974L16,4L16,6L16,6.026L15.998,6.051L15.996,6.077L15.993,6.102L15.989,6.127L15.985,6.152L15.979,6.177L15.973,6.201L15.966,6.226L15.958,6.25L15.949,6.274L15.94,6.297L15.93,6.321L15.919,6.344L15.907,6.367L15.895,6.389L15.882,6.411L15.868,6.433L15.854,6.455L15.839,6.476L15.823,6.498L15.807,6.518L15.79,6.539L15.772,6.559L15.754,6.579L15.735,6.598L15.715,6.617L15.695,6.636L15.675,6.654L15.653,6.672L15.632,6.69L15.609,6.707L15.586,6.724L15.563,6.74L15.539,6.756L15.515,6.772L15.49,6.787L15.464,6.801L15.438,6.815L15.412,6.829L15.385,6.842L15.358,6.855L15.33,6.867L15.302,6.879L15.273,6.891L15.245,6.901L15.215,6.912L15.185,6.921L15.155,6.931L15.125,6.939L15.094,6.947L15.063,6.955L15.032,6.962L15,6.968L14.968,6.974L14.935,6.98L14.903,6.984L14.87,6.988L14.836,6.992L14.803,6.995L14.769,6.997L14.735,6.999L14.701,7L14.667,7L1.333,7L1.299,7L1.265,6.999L1.231,6.997L1.197,6.995L1.164,6.992L1.13,6.988L1.097,6.984L1.065,6.98L1.032,6.974L1,6.968L0.968,6.962L0.937,6.955L0.906,6.947L0.875,6.939L0.845,6.931L0.815,6.921L0.785,6.912L0.755,6.901L0.727,6.891L0.698,6.879L0.67,6.867L0.642,6.855L0.615,6.842L0.588,6.829L0.562,6.815L0.536,6.801L0.51,6.787L0.485,6.772L0.461,6.756L0.437,6.74L0.414,6.724L0.391,6.707L0.368,6.69L0.347,6.672L0.325,6.654L0.305,6.636L0.285,6.617L0.265,6.598L0.246,6.579L0.228,6.559L0.21,6.539L0.193,6.518L0.177,6.498L0.161,6.476L0.146,6.455L0.132,6.433L0.118,6.411L0.105,6.389L0.093,6.367L0.081,6.344L0.07,6.321L0.06,6.297L0.051,6.274L0.042,6.25L0.034,6.226L0.027,6.201L0.021,6.177L0.015,6.152L0.011,6.127L0.007,6.102L0.004,6.077L0.002,6.051L0,6.026L0,6L0,4L0,3.974L0.002,3.949L0.004,3.923L0.007,3.898L0.011,3.873L0.015,3.848L0.021,3.823L0.027,3.799L0.034,3.774L0.042,3.75L0.051,3.726L0.06,3.703L0.07,3.679L0.081,3.656L0.093,3.633L0.105,3.611L0.118,3.589L0.132,3.567L0.146,3.545L0.161,3.524L0.177,3.502L0.193,3.482L0.21,3.461L0.228,3.441L0.246,3.421L0.265,3.402L0.285,3.383L0.305,3.364L0.325,3.346L0.347,3.328L0.368,3.31L0.391,3.293L0.414,3.276L0.437,3.26L0.461,3.244L0.485,3.228L0.51,3.213L0.536,3.199L0.562,3.185L0.588,3.171L0.615,3.158L0.642,3.145L0.67,3.133L0.698,3.121L0.727,3.109L0.755,3.099L0.785,3.088L0.815,3.079L0.845,3.069L0.875,3.061L0.906,3.053L0.937,3.045L0.968,3.038L1,3.032L1.032,3.026L1.065,3.02L1.097,3.016L1.13,3.012L1.164,3.008L1.197,3.005L1.231,3.003L1.265,3.001L1.299,3L1.333,3L14.667,3L14.701,3ZM2,4.5L2,5.5L14,5.5L14,4.5L2,4.5Z" style="fill:rgb(7,104,216);"/>
            </g>
        </g>
    </g>
</svg>
