<?xml version="1.0" encoding="UTF-8" standalone="no"?>
<!DOCTYPE svg PUBLIC "-//W3C//DTD SVG 1.1//EN" "http://www.w3.org/Graphics/SVG/1.1/DTD/svg11.dtd">
<svg width="100%" height="100%" viewBox="0 0 16 29" version="1.1" xmlns="http://www.w3.org/2000/svg" xmlns:xlink="http://www.w3.org/1999/xlink" xml:space="preserve" xmlns:serif="http://www.serif.com/" style="fill-rule:evenodd;clip-rule:evenodd;stroke-linejoin:round;stroke-miterlimit:1.41421;">
    <g id="Artboard1" transform="matrix(0.333333,0,0,0.741314,-8.88178e-16,-6.9262)">
        <rect x="0" y="9.343" width="48" height="38.657" style="fill:none;"/>
        <clipPath id="_clip1">
            <rect x="0" y="9.343" width="48" height="38.657"/>
        </clipPath>
        <g clip-path="url(#_clip1)">
            <g transform="matrix(3.06162e-17,-0.224826,0.75,2.06499e-17,2.25,30.9265)">
                <path d="M48,29C48,26.792 45.311,25 42,25L12,25C8.689,25 6,26.792 6,29C6,31.208 8.689,33 12,33L42,33C45.311,33 48,31.208 48,29Z" style="fill:rgb(7,104,216);"/>
            </g>
            <g transform="matrix(2.12132,-0.953856,2.12132,0.953856,-58.7315,25.1157)">
                <path d="M27.331,11.716L27.353,11.74L27.375,11.765L27.395,11.791L27.415,11.817L27.433,11.844L27.451,11.872L27.467,11.899L27.483,11.928L27.498,11.957L27.512,11.986L27.525,12.015L27.536,12.045L27.547,12.076L27.557,12.106L27.566,12.137L27.574,12.168L27.581,12.2L27.587,12.231L27.592,12.263L27.596,12.295L27.598,12.327L27.6,12.36L27.601,12.392L27.601,12.425L27.599,12.457L27.597,12.49L27.593,12.522L27.589,12.555L27.583,12.587L27.576,12.619L27.569,12.652L25.613,20.14L25.603,20.173L25.593,20.204L25.582,20.236L25.57,20.267L25.557,20.297L25.543,20.327L25.528,20.356L25.513,20.385L25.496,20.413L25.478,20.44L25.46,20.467L25.441,20.493L25.421,20.519L25.4,20.544L25.378,20.568L25.355,20.591L25.332,20.614L25.308,20.636L25.284,20.657L25.258,20.678L25.232,20.697L25.206,20.716L25.178,20.734L25.15,20.751L25.122,20.767L25.093,20.782L25.063,20.796L25.033,20.809L25.002,20.822L24.971,20.833L24.939,20.843L24.907,20.853L24.874,20.861L24.842,20.868L24.809,20.874L24.776,20.879L24.743,20.883L24.711,20.885L24.678,20.887L24.645,20.888L24.612,20.887L24.58,20.886L24.547,20.883L24.515,20.879L24.483,20.874L24.451,20.869L24.419,20.862L24.388,20.854L24.356,20.845L24.326,20.835L24.295,20.824L24.265,20.812L24.235,20.8L24.205,20.786L24.176,20.771L24.148,20.755L24.119,20.738L24.092,20.721L24.065,20.702L24.038,20.682L24.012,20.662L23.987,20.64L23.962,20.618L23.938,20.595L18.405,15.062L18.382,15.038L18.36,15.013L18.338,14.988L18.318,14.962L18.298,14.935L18.279,14.908L18.262,14.881L18.245,14.852L18.229,14.824L18.214,14.795L18.2,14.765L18.188,14.735L18.176,14.705L18.165,14.674L18.155,14.644L18.146,14.612L18.138,14.581L18.131,14.549L18.126,14.517L18.121,14.485L18.117,14.453L18.114,14.42L18.113,14.388L18.112,14.355L18.113,14.322L18.115,14.289L18.117,14.257L18.121,14.224L18.126,14.191L18.132,14.158L18.139,14.126L18.147,14.093L18.157,14.061L18.167,14.029L18.178,13.998L18.191,13.967L18.204,13.937L18.218,13.907L18.233,13.878L18.249,13.85L18.266,13.822L18.284,13.794L18.303,13.768L18.322,13.742L18.343,13.716L18.364,13.692L18.386,13.668L18.409,13.645L18.432,13.622L18.456,13.6L18.481,13.579L18.507,13.559L18.533,13.54L18.56,13.522L18.587,13.504L18.615,13.487L18.644,13.472L18.673,13.457L18.703,13.443L18.733,13.43L18.764,13.418L18.796,13.407L18.827,13.397L18.86,13.387L26.348,11.431L26.381,11.424L26.413,11.417L26.445,11.411L26.478,11.407L26.51,11.403L26.543,11.401L26.575,11.399L26.608,11.399L26.64,11.4L26.673,11.402L26.705,11.404L26.737,11.408L26.769,11.413L26.8,11.419L26.832,11.426L26.863,11.434L26.894,11.443L26.924,11.453L26.955,11.464L26.985,11.475L27.014,11.488L27.043,11.502L27.072,11.517L27.101,11.533L27.128,11.549L27.156,11.567L27.183,11.585L27.209,11.605L27.235,11.625L27.26,11.647L27.284,11.669L27.308,11.692L27.331,11.716ZM21.053,14.882L24.118,17.947L25.202,13.798L21.053,14.882Z" style="fill:rgb(7,104,216);"/>
            </g>
            <g transform="matrix(3,0,0,1.34896,-48,-7.30722)">
                <path d="M24.103,25.001L24.206,25.003L24.309,25.006L24.411,25.01L24.513,25.016L24.615,25.023L24.716,25.032L24.817,25.041L24.918,25.052L25.018,25.064L25.118,25.078L25.218,25.092L25.317,25.108L25.415,25.125L25.514,25.143L25.611,25.163L25.709,25.183L25.806,25.205L25.902,25.228L25.998,25.252L26.094,25.277L26.189,25.304L26.284,25.331L26.378,25.36L26.472,25.39L26.565,25.421L26.657,25.453L26.749,25.486L26.841,25.52L26.932,25.555L27.023,25.592L27.113,25.629L27.202,25.668L27.291,25.707L27.379,25.748L27.467,25.789L27.554,25.832L27.641,25.876L27.727,25.92L27.812,25.966L27.897,26.013L27.981,26.061L28.064,26.109L28.147,26.159L28.229,26.209L28.311,26.261L28.391,26.314L28.472,26.367L28.551,26.421L28.63,26.477L28.708,26.533L28.785,26.59L28.862,26.648L28.938,26.707L29.013,26.767L29.088,26.828L29.161,26.889L29.234,26.952L29.306,27.015L29.378,27.079L29.449,27.144L29.518,27.21L29.587,27.277L29.656,27.344L29.723,27.413L29.79,27.482L29.856,27.551L29.921,27.622L29.985,27.694L30.048,27.766L30.111,27.839L30.172,27.912L30.233,27.987L30.293,28.062L30.352,28.138L30.41,28.215L30.467,28.292L30.523,28.37L30.579,28.449L30.633,28.528L30.686,28.609L30.739,28.689L30.791,28.771L30.841,28.853L30.891,28.936L30.939,29.019L30.987,29.103L31.034,29.188L31.08,29.273L31.124,29.359L31.168,29.446L31.211,29.533L31.252,29.621L31.293,29.709L31.332,29.798L31.371,29.887L31.408,29.977L31.445,30.068L31.48,30.159L31.514,30.251L31.547,30.343L31.579,30.435L31.61,30.528L31.64,30.622L31.669,30.716L31.696,30.811L31.723,30.906L31.748,31.002L31.772,31.098L31.795,31.194L31.817,31.291L31.837,31.389L31.857,31.486L31.875,31.585L31.892,31.683L31.908,31.782L31.922,31.882L31.936,31.982L31.948,32.082L31.959,32.183L31.968,32.284L31.977,32.385L31.984,32.487L31.99,32.589L31.994,32.691L31.997,32.794L31.999,32.897L32,33L31.999,33.103L31.997,33.206L31.994,33.309L31.99,33.411L31.984,33.513L31.977,33.615L31.968,33.716L31.959,33.817L31.948,33.918L31.936,34.018L31.922,34.118L31.908,34.218L31.892,34.317L31.875,34.415L31.857,34.514L31.837,34.611L31.817,34.709L31.795,34.806L31.772,34.902L31.748,34.998L31.723,35.094L31.696,35.189L31.669,35.284L31.64,35.378L31.61,35.472L31.579,35.565L31.547,35.657L31.514,35.749L31.48,35.841L31.445,35.932L31.408,36.023L31.371,36.113L31.332,36.202L31.293,36.291L31.252,36.379L31.211,36.467L31.168,36.554L31.124,36.641L31.08,36.727L31.034,36.812L30.987,36.897L30.939,36.981L30.891,37.064L30.841,37.147L30.791,37.229L30.739,37.311L30.686,37.391L30.633,37.472L30.579,37.551L30.523,37.63L30.467,37.708L30.41,37.785L30.352,37.862L30.293,37.938L30.233,38.013L30.172,38.088L30.111,38.161L30.048,38.234L29.985,38.306L29.921,38.378L29.856,38.449L29.79,38.518L29.723,38.587L29.656,38.656L29.587,38.723L29.518,38.79L29.449,38.856L29.378,38.921L29.306,38.985L29.234,39.048L29.161,39.111L29.088,39.172L29.013,39.233L28.938,39.293L28.862,39.352L28.785,39.41L28.708,39.467L28.63,39.523L28.551,39.579L28.472,39.633L28.391,39.686L28.311,39.739L28.229,39.791L28.147,39.841L28.064,39.891L27.981,39.939L27.897,39.987L27.812,40.034L27.727,40.08L27.641,40.124L27.554,40.168L27.467,40.211L27.379,40.252L27.291,40.293L27.202,40.332L27.113,40.371L27.023,40.408L26.932,40.445L26.841,40.48L26.749,40.514L26.657,40.547L26.565,40.579L26.472,40.61L26.378,40.64L26.284,40.669L26.189,40.696L26.094,40.723L25.998,40.748L25.902,40.772L25.806,40.795L25.709,40.817L25.611,40.837L25.514,40.857L25.415,40.875L25.317,40.892L25.218,40.908L25.118,40.922L25.018,40.936L24.918,40.948L24.817,40.959L24.716,40.968L24.615,40.977L24.513,40.984L24.411,40.99L24.309,40.994L24.206,40.997L24.103,40.999L24,41L23.897,40.999L23.794,40.997L23.691,40.994L23.589,40.99L23.487,40.984L23.385,40.977L23.284,40.968L23.183,40.959L23.082,40.948L22.982,40.936L22.882,40.922L22.782,40.908L22.683,40.892L22.585,40.875L22.486,40.857L22.389,40.837L22.291,40.817L22.194,40.795L22.098,40.772L22.002,40.748L21.906,40.723L21.811,40.696L21.716,40.669L21.622,40.64L21.528,40.61L21.435,40.579L21.343,40.547L21.251,40.514L21.159,40.48L21.068,40.445L20.977,40.408L20.887,40.371L20.798,40.332L20.709,40.293L20.621,40.252L20.533,40.211L20.446,40.168L20.359,40.124L20.273,40.08L20.188,40.034L20.103,39.987L20.019,39.939L19.936,39.891L19.853,39.841L19.771,39.791L19.689,39.739L19.609,39.686L19.528,39.633L19.449,39.579L19.37,39.523L19.292,39.467L19.215,39.41L19.138,39.352L19.062,39.293L18.987,39.233L18.912,39.172L18.839,39.111L18.766,39.048L18.694,38.985L18.622,38.921L18.551,38.856L18.482,38.79L18.413,38.723L18.344,38.656L18.277,38.587L18.21,38.518L18.144,38.449L18.079,38.378L18.015,38.306L17.952,38.234L17.889,38.161L17.828,38.088L17.767,38.013L17.707,37.938L17.648,37.862L17.59,37.785L17.533,37.708L17.477,37.63L17.421,37.551L17.367,37.472L17.314,37.391L17.261,37.311L17.209,37.229L17.159,37.147L17.109,37.064L17.061,36.981L17.013,36.897L16.966,36.812L16.92,36.727L16.876,36.641L16.832,36.554L16.789,36.467L16.748,36.379L16.707,36.291L16.668,36.202L16.629,36.113L16.592,36.023L16.555,35.932L16.52,35.841L16.486,35.749L16.453,35.657L16.421,35.565L16.39,35.472L16.36,35.378L16.331,35.284L16.304,35.189L16.277,35.094L16.252,34.998L16.228,34.902L16.205,34.806L16.183,34.709L16.163,34.611L16.143,34.514L16.125,34.415L16.108,34.317L16.092,34.218L16.078,34.118L16.064,34.018L16.052,33.918L16.041,33.817L16.032,33.716L16.023,33.615L16.016,33.513L16.01,33.411L16.006,33.309L16.003,33.206L16.001,33.103L16,33L16.001,32.897L16.003,32.794L16.006,32.691L16.01,32.589L16.016,32.487L16.023,32.385L16.032,32.284L16.041,32.183L16.052,32.082L16.064,31.982L16.078,31.882L16.092,31.782L16.108,31.683L16.125,31.585L16.143,31.486L16.163,31.389L16.183,31.291L16.205,31.194L16.228,31.098L16.252,31.002L16.277,30.906L16.304,30.811L16.331,30.716L16.36,30.622L16.39,30.528L16.421,30.435L16.453,30.343L16.486,30.251L16.52,30.159L16.555,30.068L16.592,29.977L16.629,29.887L16.668,29.798L16.707,29.709L16.748,29.621L16.789,29.533L16.832,29.446L16.876,29.359L16.92,29.273L16.966,29.188L17.013,29.103L17.061,29.019L17.109,28.936L17.159,28.853L17.209,28.771L17.261,28.689L17.314,28.609L17.367,28.528L17.421,28.449L17.477,28.37L17.533,28.292L17.59,28.215L17.648,28.138L17.707,28.062L17.767,27.987L17.828,27.912L17.889,27.839L17.952,27.766L18.015,27.694L18.079,27.622L18.144,27.551L18.21,27.482L18.277,27.413L18.344,27.344L18.413,27.277L18.482,27.21L18.551,27.144L18.622,27.079L18.694,27.015L18.766,26.952L18.839,26.889L18.912,26.828L18.987,26.767L19.062,26.707L19.138,26.648L19.215,26.59L19.292,26.533L19.37,26.477L19.449,26.421L19.528,26.367L19.609,26.314L19.689,26.261L19.771,26.209L19.853,26.159L19.936,26.109L20.019,26.061L20.103,26.013L20.188,25.966L20.273,25.92L20.359,25.876L20.446,25.832L20.533,25.789L20.621,25.748L20.709,25.707L20.798,25.668L20.887,25.629L20.977,25.592L21.068,25.555L21.159,25.52L21.251,25.486L21.343,25.453L21.435,25.421L21.528,25.39L21.622,25.36L21.716,25.331L21.811,25.304L21.906,25.277L22.002,25.252L22.098,25.228L22.194,25.205L22.291,25.183L22.389,25.163L22.486,25.143L22.585,25.125L22.683,25.108L22.782,25.092L22.882,25.078L22.982,25.064L23.082,25.052L23.183,25.041L23.284,25.032L23.385,25.023L23.487,25.016L23.589,25.01L23.691,25.006L23.794,25.003L23.897,25.001L24,25L24.103,25.001ZM23.947,29L23.895,29.001L23.843,29.003L23.791,29.005L23.74,29.008L23.689,29.012L23.638,29.016L23.587,29.021L23.537,29.026L23.487,29.032L23.437,29.039L23.387,29.046L23.338,29.054L23.289,29.063L23.24,29.072L23.191,29.081L23.143,29.092L23.095,29.102L23.047,29.114L22.999,29.126L22.952,29.138L22.905,29.151L22.858,29.165L22.811,29.179L22.765,29.194L22.718,29.209L22.673,29.225L22.627,29.242L22.581,29.259L22.536,29.276L22.491,29.294L22.446,29.313L22.402,29.332L22.358,29.352L22.314,29.372L22.27,29.393L22.227,29.414L22.184,29.436L22.141,29.458L22.098,29.481L22.056,29.504L22.014,29.528L21.972,29.552L21.931,29.577L21.89,29.602L21.849,29.628L21.808,29.654L21.768,29.681L21.728,29.709L21.689,29.736L21.65,29.765L21.611,29.793L21.572,29.822L21.534,29.852L21.496,29.882L21.459,29.913L21.422,29.944L21.385,29.975L21.349,30.007L21.313,30.039L21.277,30.072L21.242,30.105L21.207,30.139L21.173,30.173L21.139,30.207L21.105,30.242L21.072,30.277L21.039,30.313L21.007,30.349L20.975,30.385L20.944,30.422L20.913,30.459L20.882,30.496L20.852,30.534L20.822,30.572L20.793,30.611L20.765,30.65L20.736,30.689L20.709,30.728L20.681,30.768L20.654,30.808L20.628,30.849L20.602,30.89L20.577,30.931L20.552,30.972L20.528,31.014L20.504,31.056L20.481,31.098L20.458,31.141L20.436,31.184L20.414,31.227L20.393,31.27L20.372,31.314L20.352,31.358L20.332,31.402L20.313,31.446L20.294,31.491L20.276,31.536L20.259,31.581L20.242,31.627L20.225,31.673L20.209,31.718L20.194,31.765L20.179,31.811L20.165,31.858L20.151,31.905L20.138,31.952L20.126,31.999L20.114,32.047L20.102,32.095L20.092,32.143L20.081,32.191L20.072,32.24L20.063,32.289L20.054,32.338L20.046,32.387L20.039,32.437L20.032,32.487L20.026,32.537L20.021,32.587L20.016,32.638L20.012,32.689L20.008,32.74L20.005,32.791L20.003,32.843L20.001,32.895L20,32.947L20,33L20,33.053L20.001,33.105L20.003,33.157L20.005,33.209L20.008,33.26L20.012,33.311L20.016,33.362L20.021,33.413L20.026,33.463L20.032,33.513L20.039,33.563L20.046,33.613L20.054,33.662L20.063,33.711L20.072,33.76L20.081,33.809L20.092,33.857L20.102,33.905L20.114,33.953L20.126,34.001L20.138,34.048L20.151,34.095L20.165,34.142L20.179,34.189L20.194,34.235L20.209,34.282L20.225,34.327L20.242,34.373L20.259,34.419L20.276,34.464L20.294,34.509L20.313,34.554L20.332,34.598L20.352,34.642L20.372,34.686L20.393,34.73L20.414,34.773L20.436,34.816L20.458,34.859L20.481,34.902L20.504,34.944L20.528,34.986L20.552,35.028L20.577,35.069L20.602,35.11L20.628,35.151L20.654,35.192L20.681,35.232L20.709,35.272L20.736,35.311L20.765,35.35L20.793,35.389L20.822,35.428L20.852,35.466L20.882,35.504L20.913,35.541L20.944,35.578L20.975,35.615L21.007,35.651L21.039,35.687L21.072,35.723L21.105,35.758L21.139,35.793L21.173,35.827L21.207,35.861L21.242,35.895L21.277,35.928L21.313,35.961L21.349,35.993L21.385,36.025L21.422,36.056L21.459,36.087L21.496,36.118L21.534,36.148L21.572,36.178L21.611,36.207L21.65,36.235L21.689,36.264L21.728,36.291L21.768,36.319L21.808,36.346L21.849,36.372L21.89,36.398L21.931,36.423L21.972,36.448L22.014,36.472L22.056,36.496L22.098,36.519L22.141,36.542L22.184,36.564L22.227,36.586L22.27,36.607L22.314,36.628L22.358,36.648L22.402,36.668L22.446,36.687L22.491,36.706L22.536,36.724L22.581,36.741L22.627,36.758L22.673,36.775L22.718,36.791L22.765,36.806L22.811,36.821L22.858,36.835L22.905,36.849L22.952,36.862L22.999,36.874L23.047,36.886L23.095,36.898L23.143,36.908L23.191,36.919L23.24,36.928L23.289,36.937L23.338,36.946L23.387,36.954L23.437,36.961L23.487,36.968L23.537,36.974L23.587,36.979L23.638,36.984L23.689,36.988L23.74,36.992L23.791,36.995L23.843,36.997L23.895,36.999L23.947,37L24,37L24.053,37L24.105,36.999L24.157,36.997L24.209,36.995L24.26,36.992L24.311,36.988L24.362,36.984L24.413,36.979L24.463,36.974L24.513,36.968L24.563,36.961L24.613,36.954L24.662,36.946L24.711,36.937L24.76,36.928L24.809,36.919L24.857,36.908L24.905,36.898L24.953,36.886L25.001,36.874L25.048,36.862L25.095,36.849L25.142,36.835L25.189,36.821L25.235,36.806L25.282,36.791L25.327,36.775L25.373,36.758L25.419,36.741L25.464,36.724L25.509,36.706L25.554,36.687L25.598,36.668L25.642,36.648L25.686,36.628L25.73,36.607L25.773,36.586L25.816,36.564L25.859,36.542L25.902,36.519L25.944,36.496L25.986,36.472L26.028,36.448L26.069,36.423L26.11,36.398L26.151,36.372L26.192,36.346L26.232,36.319L26.272,36.291L26.311,36.264L26.35,36.235L26.389,36.207L26.428,36.178L26.466,36.148L26.504,36.118L26.541,36.087L26.578,36.056L26.615,36.025L26.651,35.993L26.687,35.961L26.723,35.928L26.758,35.895L26.793,35.861L26.827,35.827L26.861,35.793L26.895,35.758L26.928,35.723L26.961,35.687L26.993,35.651L27.025,35.615L27.056,35.578L27.087,35.541L27.118,35.504L27.148,35.466L27.178,35.428L27.207,35.389L27.235,35.35L27.264,35.311L27.291,35.272L27.319,35.232L27.346,35.192L27.372,35.151L27.398,35.11L27.423,35.069L27.448,35.028L27.472,34.986L27.496,34.944L27.519,34.902L27.542,34.859L27.564,34.816L27.586,34.773L27.607,34.73L27.628,34.686L27.648,34.642L27.668,34.598L27.687,34.554L27.706,34.509L27.724,34.464L27.741,34.419L27.758,34.373L27.775,34.327L27.791,34.282L27.806,34.235L27.821,34.189L27.835,34.142L27.849,34.095L27.862,34.048L27.874,34.001L27.886,33.953L27.898,33.905L27.908,33.857L27.919,33.809L27.928,33.76L27.937,33.711L27.946,33.662L27.954,33.613L27.961,33.563L27.968,33.513L27.974,33.463L27.979,33.413L27.984,33.362L27.988,33.311L27.992,33.26L27.995,33.209L27.997,33.157L27.999,33.105L28,33.053L28,33L28,32.947L27.999,32.895L27.997,32.843L27.995,32.791L27.992,32.74L27.988,32.689L27.984,32.638L27.979,32.587L27.974,32.537L27.968,32.487L27.961,32.437L27.954,32.387L27.946,32.338L27.937,32.289L27.928,32.24L27.919,32.191L27.908,32.143L27.898,32.095L27.886,32.047L27.874,31.999L27.862,31.952L27.849,31.905L27.835,31.858L27.821,31.811L27.806,31.765L27.791,31.718L27.775,31.673L27.758,31.627L27.741,31.581L27.724,31.536L27.706,31.491L27.687,31.446L27.668,31.402L27.648,31.358L27.628,31.314L27.607,31.27L27.586,31.227L27.564,31.184L27.542,31.141L27.519,31.098L27.496,31.056L27.472,31.014L27.448,30.972L27.423,30.931L27.398,30.89L27.372,30.849L27.346,30.808L27.319,30.768L27.291,30.728L27.264,30.689L27.235,30.65L27.207,30.611L27.178,30.572L27.148,30.534L27.118,30.496L27.087,30.459L27.056,30.422L27.025,30.385L26.993,30.349L26.961,30.313L26.928,30.277L26.895,30.242L26.861,30.207L26.827,30.173L26.793,30.139L26.758,30.105L26.723,30.072L26.687,30.039L26.651,30.007L26.615,29.975L26.578,29.944L26.541,29.913L26.504,29.882L26.466,29.852L26.428,29.822L26.389,29.793L26.35,29.765L26.311,29.736L26.272,29.709L26.232,29.681L26.192,29.654L26.151,29.628L26.11,29.602L26.069,29.577L26.028,29.552L25.986,29.528L25.944,29.504L25.902,29.481L25.859,29.458L25.816,29.436L25.773,29.414L25.73,29.393L25.686,29.372L25.642,29.352L25.598,29.332L25.554,29.313L25.509,29.294L25.464,29.276L25.419,29.259L25.373,29.242L25.327,29.225L25.282,29.209L25.235,29.194L25.189,29.179L25.142,29.165L25.095,29.151L25.048,29.138L25.001,29.126L24.953,29.114L24.905,29.102L24.857,29.092L24.809,29.081L24.76,29.072L24.711,29.063L24.662,29.054L24.613,29.046L24.563,29.039L24.513,29.032L24.463,29.026L24.413,29.021L24.362,29.016L24.311,29.012L24.26,29.008L24.209,29.005L24.157,29.003L24.105,29.001L24.053,29L24,29L23.947,29Z" style="fill:rgb(7,104,216);"/>
            </g>
        </g>
    </g>
</svg>
