<?xml version="1.0" encoding="UTF-8" standalone="no"?>
<!DOCTYPE svg PUBLIC "-//W3C//DTD SVG 1.1//EN" "http://www.w3.org/Graphics/SVG/1.1/DTD/svg11.dtd">
<svg width="100%" height="100%" viewBox="0 0 15 15" version="1.1" xmlns="http://www.w3.org/2000/svg" xmlns:xlink="http://www.w3.org/1999/xlink" xml:space="preserve" xmlns:serif="http://www.serif.com/" style="fill-rule:evenodd;clip-rule:evenodd;stroke-linejoin:round;stroke-miterlimit:1.41421;">
    <g id="Artboard1" transform="matrix(0.9375,0,0,0.9375,-1.875,-1.875)">
        <rect x="2" y="2" width="16" height="16" style="fill:none;"/>
        <g id="split-icon" serif:id="split icon" transform="matrix(2.92111,0,0,1.52515,-1663.67,-941.976)">
            <g id="down-arrow" serif:id="down arrow" transform="matrix(0.189351,0.362663,-0.189351,0.362663,413.417,219.338)">
                <path d="M985.501,131.382L985.474,131.386L985.447,131.392L985.419,131.4L985.389,131.41L985.359,131.422L985.328,131.435L985.297,131.45L985.266,131.466L985.234,131.483L985.202,131.501L985.171,131.52L985.108,131.56L985.048,131.601L984.99,131.642L984.937,131.682L984.889,131.719L984.847,131.752L984.786,131.802L984.764,131.821L984.764,135.89L984.749,135.874L980.699,135.874L979.692,136.881L980.699,137.888L984.749,137.888L984.764,137.872L984.764,141.937L984.785,141.956L984.843,142.005L984.883,142.039L984.93,142.076L984.982,142.116L985.038,142.157L985.098,142.198L985.159,142.237L985.223,142.275L985.255,142.292L985.286,142.308L985.318,142.323L985.35,142.336L985.381,142.348L985.411,142.358L985.441,142.366L985.47,142.372L985.499,142.375L985.526,142.377L985.545,142.376L985.563,142.374L985.581,142.371L985.598,142.367L985.633,142.374L985.668,142.379L985.704,142.381L985.739,142.381L985.774,142.378L985.809,142.373L985.844,142.365L985.879,142.355L985.913,142.343L985.946,142.328L985.979,142.31L986.011,142.29L986.042,142.268L986.072,142.243L986.101,142.215L986.128,142.185L992.595,137.354L992.614,137.33L992.633,137.305L992.651,137.279L992.667,137.252L992.682,137.224L992.696,137.196L992.709,137.167L992.72,137.137L992.73,137.107L992.739,137.076L992.747,137.044L992.753,137.012L992.758,136.98L992.761,136.947L992.764,136.914L992.764,136.881L992.764,136.88L992.764,136.847L992.761,136.814L992.758,136.782L992.753,136.749L992.747,136.717L992.739,136.686L992.73,136.655L992.72,136.624L992.709,136.595L992.696,136.565L992.682,136.537L992.667,136.509L992.65,136.482L992.633,136.456L992.614,136.431L992.594,136.407L986.128,131.586L986.102,131.557L986.074,131.531L986.046,131.507L986.017,131.486L985.987,131.466L985.956,131.449L985.925,131.434L985.893,131.421L985.86,131.411L985.827,131.402L985.794,131.396L985.761,131.392L985.727,131.391L985.694,131.391L985.66,131.394L985.627,131.399L985.604,131.391L985.579,131.386L985.553,131.382L985.526,131.381L985.501,131.382ZM985.142,141.275L985.144,141.273L985.146,141.272L985.142,141.275ZM985.275,141.064L985.303,141.058L985.327,141.053L985.275,141.064ZM990.985,136.881L986.106,140.527L986.106,137.872L986.103,137.785L986.094,137.697L986.08,137.611L986.06,137.525L986.035,137.441L986.004,137.359L985.968,137.279L985.926,137.202L985.88,137.127L985.829,137.056L985.773,136.988L985.713,136.924L985.668,136.881L985.713,136.839L985.773,136.775L985.829,136.707L985.88,136.635L985.926,136.561L985.968,136.483L986.004,136.403L986.035,136.321L986.06,136.237L986.08,136.152L986.094,136.065L986.103,135.978L986.106,135.89L986.106,133.243L990.985,136.881ZM985.272,132.692L985.252,132.687L985.219,132.677L985.272,132.692ZM985.145,132.499L985.144,132.497L985.142,132.496L985.145,132.499Z" style="fill:rgb(7,104,216);"/>
            </g>
            <g id="up-arrow" serif:id="up arrow" transform="matrix(-0.189351,-0.362663,0.189351,-0.362663,732.59,1029.22)">
                <path d="M985.501,131.382L985.474,131.386L985.447,131.392L985.419,131.4L985.389,131.41L985.359,131.422L985.328,131.435L985.297,131.45L985.266,131.466L985.234,131.483L985.202,131.501L985.171,131.52L985.108,131.56L985.048,131.601L984.99,131.642L984.937,131.682L984.889,131.719L984.847,131.752L984.786,131.802L984.764,131.821L984.764,135.89L984.749,135.874L980.699,135.874L979.692,136.881L980.699,137.888L984.749,137.888L984.764,137.872L984.764,141.937L984.785,141.956L984.843,142.005L984.883,142.039L984.93,142.076L984.982,142.116L985.038,142.157L985.098,142.198L985.159,142.237L985.223,142.275L985.255,142.292L985.286,142.308L985.318,142.323L985.35,142.336L985.381,142.348L985.411,142.358L985.441,142.366L985.47,142.372L985.499,142.375L985.526,142.377L985.545,142.376L985.563,142.374L985.581,142.371L985.598,142.367L985.633,142.374L985.668,142.379L985.704,142.381L985.739,142.381L985.774,142.378L985.809,142.373L985.844,142.365L985.879,142.355L985.913,142.343L985.946,142.328L985.979,142.31L986.011,142.29L986.042,142.268L986.072,142.243L986.101,142.215L986.128,142.185L992.595,137.354L992.614,137.33L992.633,137.305L992.651,137.279L992.667,137.252L992.682,137.224L992.696,137.196L992.709,137.167L992.72,137.137L992.73,137.107L992.739,137.076L992.747,137.044L992.753,137.012L992.758,136.98L992.761,136.947L992.764,136.914L992.764,136.881L992.764,136.88L992.764,136.847L992.761,136.814L992.758,136.782L992.753,136.749L992.747,136.717L992.739,136.686L992.73,136.655L992.72,136.624L992.709,136.595L992.696,136.565L992.682,136.537L992.667,136.509L992.65,136.482L992.633,136.456L992.614,136.431L992.594,136.407L986.128,131.586L986.102,131.557L986.074,131.531L986.046,131.507L986.017,131.486L985.987,131.466L985.956,131.449L985.925,131.434L985.893,131.421L985.86,131.411L985.827,131.402L985.794,131.396L985.761,131.392L985.727,131.391L985.694,131.391L985.66,131.394L985.627,131.399L985.604,131.391L985.579,131.386L985.553,131.382L985.526,131.381L985.501,131.382ZM985.142,141.275L985.144,141.273L985.146,141.272L985.142,141.275ZM985.275,141.064L985.303,141.058L985.327,141.053L985.275,141.064ZM990.985,136.881L986.106,140.527L986.106,137.872L986.103,137.785L986.094,137.697L986.08,137.611L986.06,137.525L986.035,137.441L986.004,137.359L985.968,137.279L985.926,137.202L985.88,137.127L985.829,137.056L985.773,136.988L985.713,136.924L985.668,136.881L985.713,136.839L985.773,136.775L985.829,136.707L985.88,136.635L985.926,136.561L985.968,136.483L986.004,136.403L986.035,136.321L986.06,136.237L986.08,136.152L986.094,136.065L986.103,135.978L986.106,135.89L986.106,133.243L990.985,136.881ZM985.272,132.692L985.252,132.687L985.219,132.677L985.272,132.692ZM985.145,132.499L985.144,132.497L985.142,132.496L985.145,132.499Z" style="fill:rgb(7,104,216);"/>
            </g>
            <g id="up-arrow1" serif:id="up arrow" transform="matrix(-0.189351,0.362663,-0.189351,-0.362663,784.062,319.321)">
                <path d="M982.835,137.872L982.835,135.89L982.82,135.874L980.699,135.874L979.692,136.881L980.699,137.888L982.82,137.888L982.835,137.872Z" style="fill:rgb(90,77,63);"/>
            </g>
            <g id="dash" transform="matrix(-0.189351,0.362663,-0.189351,-0.362663,782.967,321.419)">
                <path d="M982.835,137.872L982.835,135.89L982.82,135.874L980.699,135.874L979.692,136.881L980.699,137.888L982.82,137.888L982.835,137.872Z" style="fill:rgb(90,77,63);"/>
            </g>
            <g id="dash1" serif:id="dash" transform="matrix(0.189351,-0.362663,0.189351,0.362663,361.945,929.235)">
                <path d="M982.835,137.872L982.835,135.89L982.82,135.874L980.699,135.874L979.692,136.881L980.699,137.888L982.82,137.888L982.835,137.872Z" style="fill:rgb(90,77,63);"/>
            </g>
            <g id="dash2" serif:id="dash" transform="matrix(0.189351,-0.362663,0.189351,0.362663,363.04,927.137)">
                <path d="M982.835,137.872L982.835,135.89L982.82,135.874L980.699,135.874L979.692,136.881L980.699,137.888L982.82,137.888L982.835,137.872Z" style="fill:rgb(90,77,63);"/>
            </g>
        </g>
    </g>
</svg>
